<?xml version="1.0" encoding="UTF-8" standalone="no"?>
<!DOCTYPE svg PUBLIC "-//W3C//DTD SVG 1.1//EN" "http://www.w3.org/Graphics/SVG/1.1/DTD/svg11.dtd">
<svg xmlns="http://www.w3.org/2000/svg" version="1.1" viewBox="0.00 0.00 1080.00 1080.00">
<g stroke-width="2.00" fill="none" stroke-linecap="butt">
<path stroke="#80a2c2" vector-effect="non-scaling-stroke" d="
  M 625.57 723.01
  Q 626.02 721.53 626.02 716.50
  Q 625.98 619.22 626.01 521.81
  Q 626.01 521.54 626.27 521.54
  L 757.51 521.54
  Q 758.05 521.54 758.35 521.10
  L 838.65 400.27
  A 0.20 0.20 0.0 0 0 838.49 399.96
  L 515.49 399.94
  A 0.50 0.49 -0.0 0 0 514.99 400.43
  L 514.78 722.96"
/>
<path stroke="#80a5d6" vector-effect="non-scaling-stroke" d="
  M 514.78 722.96
  L 413.17 722.92
  Q 412.54 722.92 412.54 722.28
  L 412.54 460.27
  Q 412.54 459.75 412.02 459.75
  L 362.75 459.75
  Q 362.25 459.75 362.25 459.25
  L 362.25 317.02
  Q 362.25 316.61 361.91 316.38
  L 241.18 236.30
  Q 240.75 236.02 240.75 236.53
  L 240.75 506.68
  Q 240.75 507.08 241.08 507.30
  L 301.46 547.20
  A 1.13 1.11 -73.3 0 1 301.95 548.13
  L 301.96 782.68
  A 0.47 0.47 0.0 0 0 302.43 783.15
  L 341.93 783.12
  Q 342.60 783.12 342.23 783.68
  L 302.20 844.04
  A 0.32 0.32 0.0 0 0 302.47 844.54
  L 544.46 844.54
  Q 544.91 844.54 545.15 844.17
  L 625.57 723.01"
/>
<path stroke="#004799" vector-effect="non-scaling-stroke" d="
  M 514.78 722.96
  L 625.57 723.01"
/>
<path stroke="#80a2c2" vector-effect="non-scaling-stroke" d="
  M 596.12 235.96
  A 0.34 0.34 0.0 0 0 595.84 236.11
  L 515.48 357.01
  A 0.34 0.34 0.0 0 0 515.76 357.54
  L 757.97 357.54
  A 0.34 0.34 0.0 0 0 758.25 357.39
  L 838.59 236.49
  A 0.34 0.34 0.0 0 0 838.31 235.96
  L 596.12 235.96"
/>
<path stroke="#80a2c2" vector-effect="non-scaling-stroke" d="
  M 583.32 882.20
  C 578.68 884.67 583.93 890.16 586.95 886.62
  Q 588.69 884.59 587.58 882.36
  C 585.97 879.10 580.84 878.49 577.75 879.22
  C 572.73 880.42 571.26 885.37 571.72 889.99
  A 0.50 0.49 86.9 0 1 571.23 890.54
  L 567.71 890.53
  Q 567.20 890.53 567.18 891.04
  L 567.12 892.48
  Q 567.09 893.11 567.73 893.11
  L 571.01 893.12
  Q 571.60 893.12 571.60 893.71
  L 571.58 911.83
  Q 571.58 912.49 570.92 912.48
  L 567.79 912.44
  A 0.59 0.59 0.0 0 0 567.20 912.96
  L 567.06 914.50
  Q 567.01 915.00 567.50 915.00
  L 581.62 915.00
  Q 582.24 915.00 582.24 914.38
  L 582.23 913.11
  Q 582.23 912.48 581.60 912.48
  L 576.99 912.48
  Q 576.50 912.48 576.50 911.99
  L 576.50 893.68
  Q 576.50 893.11 577.07 893.11
  L 583.11 893.12
  A 0.58 0.58 0.0 0 0 583.69 892.56
  L 583.76 891.03
  Q 583.78 890.53 583.28 890.53
  L 577.02 890.54
  Q 576.53 890.54 576.46 890.06
  C 576.03 887.27 576.00 882.74 578.93 881.27
  Q 581.05 880.21 583.32 881.43
  Q 584.04 881.82 583.32 882.20"
/>
<path stroke="#80a2c2" vector-effect="non-scaling-stroke" d="
  M 405.92 911.05
  Q 406.43 912.52 406.48 914.18
  A 2.03 1.61 -83.0 0 0 409.72 913.80
  Q 409.55 907.94 409.67 902.25
  Q 409.68 901.68 410.25 901.68
  L 412.80 901.70
  A 0.50 0.50 0.0 0 0 413.31 901.20
  L 413.30 898.76
  Q 413.30 898.22 412.76 898.22
  L 399.02 898.22
  Q 398.50 898.22 398.50 898.73
  L 398.50 901.22
  Q 398.50 901.69 398.97 901.69
  L 404.45 901.70
  Q 404.87 901.70 404.92 902.11
  C 405.99 911.25 395.43 914.07 389.47 908.75
  C 381.52 901.65 383.96 882.75 397.30 883.19
  Q 401.24 883.32 404.42 886.11
  Q 404.88 886.52 404.35 886.82
  C 399.20 889.67 403.24 896.13 407.97 893.35
  Q 410.56 891.83 409.46 888.19
  C 407.92 883.08 403.16 880.49 397.87 880.18
  C 372.91 878.71 373.06 916.56 395.99 915.50
  Q 402.04 915.22 405.43 910.96
  Q 405.75 910.55 405.92 911.05"
/>
<path stroke="#80a2c2" vector-effect="non-scaling-stroke" d="
  M 313.34 884.41
  L 313.34 911.20
  Q 313.34 911.74 312.79 911.74
  L 308.25 911.75
  Q 307.74 911.75 307.74 912.25
  L 307.75 914.49
  Q 307.75 914.99 308.25 914.99
  Q 316.88 915.05 325.50 914.91
  C 330.85 914.82 337.28 913.29 338.19 907.32
  C 338.99 902.16 336.08 898.12 331.02 896.86
  A 0.30 0.30 0.0 0 1 331.00 896.28
  C 335.76 894.75 337.94 890.06 335.57 885.66
  C 333.10 881.07 326.53 880.80 321.50 880.76
  Q 314.89 880.69 308.25 880.75
  Q 307.75 880.76 307.75 881.26
  L 307.75 883.49
  Q 307.75 883.99 308.24 883.99
  L 312.93 883.99
  Q 313.34 883.99 313.34 884.41"
/>
<path stroke="#80a2c2" vector-effect="non-scaling-stroke" d="
  M 486.30 892.89
  Q 481.43 888.48 476.37 890.55
  C 470.00 893.15 469.20 899.73 469.90 905.98
  C 470.82 914.32 480.52 919.78 486.14 911.82
  Q 486.75 910.95 486.94 911.99
  L 487.37 914.45
  A 0.66 0.66 0.0 0 0 488.02 915.00
  L 495.04 915.00
  Q 495.83 915.00 495.75 914.21
  L 495.63 913.01
  Q 495.57 912.46 495.01 912.46
  L 492.00 912.48
  Q 491.51 912.49 491.51 912.00
  L 491.51 881.25
  Q 491.51 880.73 491.00 880.73
  L 481.76 880.73
  Q 481.26 880.73 481.26 881.24
  L 481.26 883.01
  Q 481.26 883.51 481.76 883.51
  L 486.20 883.51
  Q 486.64 883.51 486.64 883.95
  L 486.67 892.72
  Q 486.67 893.21 486.30 892.89"
/>
<path stroke="#80a2c2" vector-effect="non-scaling-stroke" d="
  M 513.09 884.42
  L 513.09 911.20
  A 0.55 0.54 90.0 0 1 512.55 911.75
  L 508.00 911.75
  Q 507.50 911.75 507.50 912.25
  L 507.50 914.49
  Q 507.50 914.99 508.00 914.99
  Q 516.88 915.06 525.75 914.87
  C 531.00 914.75 537.10 913.06 537.97 907.32
  C 538.74 902.18 535.85 898.14 530.80 896.87
  A 0.30 0.30 0.0 0 1 530.77 896.29
  Q 536.46 894.26 536.17 888.67
  C 535.85 882.64 529.19 880.90 524.25 880.81
  Q 516.13 880.66 508.00 880.76
  Q 507.50 880.76 507.50 881.26
  L 507.50 883.49
  Q 507.50 883.99 507.99 883.99
  L 512.67 883.99
  Q 513.09 883.99 513.09 884.42"
/>
<path stroke="#80a2c2" vector-effect="non-scaling-stroke" d="
  M 676.09 884.54
  L 676.09 911.20
  A 0.55 0.55 0.0 0 1 675.54 911.75
  L 671.00 911.75
  Q 670.50 911.75 670.50 912.25
  L 670.49 914.48
  Q 670.49 914.98 670.99 914.99
  Q 679.87 915.06 688.75 914.87
  Q 693.23 914.77 696.18 913.42
  C 704.10 909.77 701.94 898.87 693.81 896.87
  A 0.31 0.31 0.0 0 1 693.76 896.29
  C 703.82 892.08 698.97 881.71 690.00 880.99
  Q 683.03 880.44 670.93 880.84
  Q 670.50 880.85 670.50 881.29
  L 670.49 883.49
  Q 670.49 883.99 670.99 883.99
  L 675.54 883.99
  Q 676.09 883.99 676.09 884.54"
/>
<path stroke="#80a2c2" vector-effect="non-scaling-stroke" d="
  M 761.57 890.05
  L 761.59 881.75
  A 0.84 0.84 0.0 0 0 759.94 881.55
  Q 758.24 888.53 752.24 892.24
  A 0.48 0.47 -61.0 0 0 752.49 893.12
  L 756.24 893.10
  Q 756.71 893.10 756.71 893.57
  Q 756.72 899.91 756.73 906.28
  C 756.73 911.70 758.30 915.76 764.28 915.63
  C 770.97 915.49 771.69 909.77 771.27 904.27
  Q 771.23 903.77 770.74 903.76
  L 769.05 903.75
  Q 768.56 903.74 768.57 904.24
  C 768.66 907.61 768.91 913.25 764.44 912.38
  C 761.89 911.89 761.62 909.97 761.60 907.73
  Q 761.56 900.80 761.59 893.72
  Q 761.60 893.17 762.14 893.18
  L 769.94 893.19
  Q 770.57 893.19 770.56 892.56
  L 770.53 891.03
  Q 770.53 890.53 770.03 890.53
  L 762.05 890.53
  Q 761.57 890.53 761.57 890.05"
/>
<path stroke="#80a2c2" vector-effect="non-scaling-stroke" d="
  M 347.53 902.48
  L 363.77 902.48
  Q 364.35 902.48 364.36 901.90
  C 364.38 893.34 356.15 886.76 348.08 891.07
  C 339.05 895.89 339.46 911.92 350.25 915.21
  C 355.94 916.93 362.30 913.93 363.76 907.74
  Q 363.88 907.23 363.37 907.11
  L 361.80 906.74
  Q 361.32 906.63 361.13 907.09
  C 357.46 916.13 346.32 912.41 347.06 902.92
  Q 347.09 902.48 347.53 902.48"
/>
<path stroke="#80a2c2" vector-effect="non-scaling-stroke" d="
  M 427.2542 915.7584
  A 13.00 12.01 89.1 0 0 439.0585 902.5714
  A 13.00 12.01 89.1 0 0 426.8458 889.7616
  A 13.00 12.01 89.1 0 0 415.0415 902.9486
  A 13.00 12.01 89.1 0 0 427.2542 915.7584"
/>
<path stroke="#80a2c2" vector-effect="non-scaling-stroke" d="
  M 454.4815 915.7587
  A 13.00 12.01 89.2 0 0 466.3088 902.5923
  A 13.00 12.01 89.2 0 0 454.1185 889.7613
  A 13.00 12.01 89.2 0 0 442.2912 902.9277
  A 13.00 12.01 89.2 0 0 454.4815 915.7587"
/>
<path stroke="#80a2c2" vector-effect="non-scaling-stroke" d="
  M 547.29 902.48
  L 563.72 902.48
  Q 564.12 902.48 564.13 902.07
  C 564.18 896.48 561.26 891.74 555.79 890.17
  Q 551.57 888.96 547.81 891.05
  C 537.23 896.94 540.12 916.86 554.62 915.53
  Q 560.98 914.95 563.62 908.02
  A 0.61 0.61 0.0 0 0 563.24 907.22
  L 561.77 906.73
  Q 561.13 906.52 560.87 907.14
  C 557.11 916.12 546.06 912.37 546.81 902.92
  Q 546.85 902.48 547.29 902.48"
/>
<path stroke="#80a2c2" vector-effect="non-scaling-stroke" d="
  M 597.5042 915.7584
  A 13.00 12.01 89.1 0 0 609.3085 902.5714
  A 13.00 12.01 89.1 0 0 597.0958 889.7616
  A 13.00 12.01 89.1 0 0 585.2915 902.9486
  A 13.00 12.01 89.1 0 0 597.5042 915.7584"
/>
<path stroke="#80a2c2" vector-effect="non-scaling-stroke" d="
  M 621.23 894.49
  L 620.85 890.73
  Q 620.80 890.17 620.23 890.19
  L 612.65 890.53
  Q 612.11 890.56 612.09 891.10
  L 612.04 892.44
  A 0.66 0.66 0.0 0 0 612.69 893.12
  L 615.96 893.12
  Q 616.54 893.12 616.54 893.71
  L 616.54 911.98
  Q 616.54 912.50 616.02 912.49
  L 612.75 912.44
  Q 612.19 912.43 612.14 913.00
  L 612.01 914.48
  Q 611.97 915.00 612.48 915.00
  L 625.97 915.00
  A 0.66 0.66 0.0 0 0 626.63 914.28
  L 626.53 912.98
  Q 626.49 912.47 625.98 912.47
  L 622.04 912.48
  Q 621.58 912.48 621.55 912.03
  C 621.28 906.90 620.02 895.32 625.66 892.57
  Q 626.49 892.17 626.15 893.03
  C 625.02 895.87 626.92 897.93 629.76 897.40
  C 633.52 896.70 633.29 890.49 628.99 890.08
  Q 623.87 889.59 621.73 894.56
  Q 621.33 895.47 621.23 894.49"
/>
<path stroke="#80a2c2" vector-effect="non-scaling-stroke" d="
  M 640.29 902.48
  L 656.70 902.48
  Q 656.99 902.48 657.00 902.18
  Q 657.25 894.22 651.21 891.05
  Q 646.53 888.61 642.02 890.55
  C 630.76 895.40 632.13 914.44 645.45 915.55
  Q 652.71 916.16 656.46 908.76
  A 1.22 1.22 0.0 0 0 655.76 907.06
  L 654.76 906.72
  A 0.73 0.73 0.0 0 0 653.86 907.13
  C 650.16 916.13 639.06 912.38 639.81 902.92
  Q 639.85 902.48 640.29 902.48"
/>
<path stroke="#80a2c2" vector-effect="non-scaling-stroke" d="
  M 710.29 902.48
  L 726.70 902.48
  Q 727.00 902.48 727.01 902.18
  C 727.24 894.24 720.56 887.72 712.81 890.30
  C 700.82 894.29 701.69 914.11 715.34 915.53
  Q 723.19 916.36 726.71 907.97
  A 0.53 0.52 20.7 0 0 726.39 907.27
  L 724.79 906.73
  Q 724.13 906.51 723.86 907.15
  C 720.10 916.13 709.06 912.36 709.81 902.92
  Q 709.85 902.48 710.29 902.48"
/>
<path stroke="#80a2c2" vector-effect="non-scaling-stroke" d="
  M 745.37 893.79
  C 741.88 896.85 747.11 900.95 749.64 897.69
  C 752.16 894.47 748.06 891.43 745.14 890.67
  Q 739.74 889.26 735.40 891.00
  C 731.56 892.54 729.36 896.90 732.28 900.37
  C 735.22 903.86 747.87 904.59 746.40 909.77
  C 745.21 913.98 738.56 913.33 735.57 911.95
  Q 735.04 911.70 735.51 911.35
  C 739.77 908.14 734.06 904.15 731.71 907.00
  Q 729.87 909.25 731.23 911.64
  C 733.86 916.25 742.70 916.22 746.77 914.55
  C 752.43 912.24 752.22 904.41 746.66 902.07
  Q 744.45 901.13 737.88 898.96
  C 736.56 898.52 735.28 897.63 735.26 896.25
  C 735.18 891.59 742.60 892.06 745.26 893.13
  Q 745.86 893.37 745.37 893.79"
/>
<path stroke="#80a2c2" vector-effect="non-scaling-stroke" d="
  M 318.72 884.30
  L 318.72 895.04
  A 0.26 0.26 0.0 0 0 318.98 895.30
  L 324.55 895.30
  A 6.93 5.00 0.0 0 0 331.48 890.30
  L 331.48 889.04
  A 6.93 5.00 -0.0 0 0 324.55 884.04
  L 318.98 884.04
  A 0.26 0.26 0.0 0 0 318.72 884.30"
/>
<path stroke="#80a2c2" vector-effect="non-scaling-stroke" d="
  M 318.75 898.81
  L 318.71 911.49
  A 0.29 0.29 0.0 0 0 319.00 911.78
  L 324.94 911.80
  A 7.99 6.15 0.2 0 0 332.95 905.67
  L 332.95 904.71
  A 7.99 6.15 0.2 0 0 324.98 898.54
  L 319.04 898.52
  A 0.29 0.29 0.0 0 0 318.75 898.81"
/>
<path stroke="#80a2c2" vector-effect="non-scaling-stroke" d="
  M 480.6954 912.7792
  A 10.20 6.14 90.7 0 0 486.9595 902.6550
  A 10.20 6.14 90.7 0 0 480.9446 892.3808
  A 10.20 6.14 90.7 0 0 474.6805 902.5050
  A 10.20 6.14 90.7 0 0 480.6954 912.7792"
/>
<path stroke="#80a2c2" vector-effect="non-scaling-stroke" d="
  M 518.47 884.25
  L 518.49 895.11
  A 0.21 0.21 0.0 0 0 518.70 895.32
  L 524.35 895.31
  A 6.90 5.11 -0.1 0 0 531.24 890.19
  L 531.24 889.13
  A 6.90 5.11 -0.1 0 0 524.33 884.03
  L 518.68 884.04
  A 0.21 0.21 0.0 0 0 518.47 884.25"
/>
<path stroke="#80a2c2" vector-effect="non-scaling-stroke" d="
  M 518.49 898.73
  L 518.45 911.57
  A 0.21 0.21 0.0 0 0 518.66 911.78
  L 524.61 911.80
  A 8.06 6.04 0.2 0 0 532.69 905.78
  L 532.69 904.60
  A 8.06 6.04 0.2 0 0 524.65 898.54
  L 518.70 898.52
  A 0.21 0.21 0.0 0 0 518.49 898.73"
/>
<path stroke="#80a2c2" vector-effect="non-scaling-stroke" d="
  M 681.47 884.30
  L 681.49 895.06
  A 0.26 0.26 0.0 0 0 681.75 895.32
  L 687.35 895.31
  A 6.90 5.10 -0.1 0 0 694.24 890.20
  L 694.24 889.12
  A 6.90 5.10 -0.1 0 0 687.33 884.03
  L 681.73 884.04
  A 0.26 0.26 0.0 0 0 681.47 884.30"
/>
<path stroke="#80a2c2" vector-effect="non-scaling-stroke" d="
  M 681.48 898.74
  L 681.46 911.58
  A 0.21 0.21 0.0 0 0 681.67 911.79
  L 687.63 911.80
  A 8.05 6.04 0.1 0 0 695.69 905.77
  L 695.69 904.59
  A 8.05 6.04 0.1 0 0 687.65 898.54
  L 681.69 898.53
  A 0.21 0.21 0.0 0 0 681.48 898.74"
/>
<path stroke="#80a2c2" vector-effect="non-scaling-stroke" d="
  M 347.55 900.06
  L 359.11 899.94
  A 0.37 0.37 0.0 0 0 359.47 899.57
  L 359.47 899.41
  A 6.77 6.03 89.4 0 0 353.37 892.70
  L 353.13 892.70
  A 6.77 6.03 89.4 0 0 347.17 899.53
  L 347.17 899.69
  A 0.37 0.37 0.0 0 0 347.55 900.06"
/>
<path stroke="#80a2c2" vector-effect="non-scaling-stroke" d="
  M 427.0600 912.9000
  A 10.23 6.76 90.0 0 0 433.8200 902.6700
  A 10.23 6.76 90.0 0 0 427.0600 892.4400
  A 10.23 6.76 90.0 0 0 420.3000 902.6700
  A 10.23 6.76 90.0 0 0 427.0600 912.9000"
/>
<path stroke="#80a2c2" vector-effect="non-scaling-stroke" d="
  M 454.2922 912.8900
  A 10.22 6.75 90.1 0 0 461.0600 902.6818
  A 10.22 6.75 90.1 0 0 454.3278 892.4500
  A 10.22 6.75 90.1 0 0 447.5600 902.6582
  A 10.22 6.75 90.1 0 0 454.2922 912.8900"
/>
<path stroke="#80a2c2" vector-effect="non-scaling-stroke" d="
  M 547.23 900.05
  L 558.91 899.95
  A 0.30 0.30 0.0 0 0 559.21 899.65
  L 559.21 899.48
  A 6.81 6.02 89.5 0 0 553.13 892.72
  L 552.89 892.72
  A 6.81 6.02 89.5 0 0 546.93 899.58
  L 546.93 899.75
  A 0.30 0.30 0.0 0 0 547.23 900.05"
/>
<path stroke="#80a2c2" vector-effect="non-scaling-stroke" d="
  M 597.2921 912.9000
  A 10.23 6.75 90.1 0 0 604.0600 902.6818
  A 10.23 6.75 90.1 0 0 597.3279 892.4400
  A 10.23 6.75 90.1 0 0 590.5600 902.6582
  A 10.23 6.75 90.1 0 0 597.2921 912.9000"
/>
<path stroke="#80a2c2" vector-effect="non-scaling-stroke" d="
  M 640.22 900.05
  L 651.92 899.95
  A 0.30 0.30 0.0 0 0 652.22 899.65
  L 652.22 899.48
  A 6.81 6.02 89.5 0 0 646.14 892.72
  L 645.88 892.72
  A 6.81 6.02 89.5 0 0 639.92 899.58
  L 639.92 899.75
  A 0.30 0.30 0.0 0 0 640.22 900.05"
/>
<path stroke="#80a2c2" vector-effect="non-scaling-stroke" d="
  M 710.22 900.05
  L 721.92 899.95
  A 0.30 0.30 0.0 0 0 722.22 899.65
  L 722.22 899.48
  A 6.81 6.02 89.5 0 0 716.14 892.72
  L 715.88 892.72
  A 6.81 6.02 89.5 0 0 709.92 899.58
  L 709.92 899.75
  A 0.30 0.30 0.0 0 0 710.22 900.05"
/>
</g>
<path fill="#ffffff" d="
  M 0.00 0.00
  L 1080.00 0.00
  L 1080.00 1080.00
  L 0.00 1080.00
  L 0.00 0.00
  Z
  M 625.57 723.01
  Q 626.02 721.53 626.02 716.50
  Q 625.98 619.22 626.01 521.81
  Q 626.01 521.54 626.27 521.54
  L 757.51 521.54
  Q 758.05 521.54 758.35 521.10
  L 838.65 400.27
  A 0.20 0.20 0.0 0 0 838.49 399.96
  L 515.49 399.94
  A 0.50 0.49 -0.0 0 0 514.99 400.43
  L 514.78 722.96
  L 413.17 722.92
  Q 412.54 722.92 412.54 722.28
  L 412.54 460.27
  Q 412.54 459.75 412.02 459.75
  L 362.75 459.75
  Q 362.25 459.75 362.25 459.25
  L 362.25 317.02
  Q 362.25 316.61 361.91 316.38
  L 241.18 236.30
  Q 240.75 236.02 240.75 236.53
  L 240.75 506.68
  Q 240.75 507.08 241.08 507.30
  L 301.46 547.20
  A 1.13 1.11 -73.3 0 1 301.95 548.13
  L 301.96 782.68
  A 0.47 0.47 0.0 0 0 302.43 783.15
  L 341.93 783.12
  Q 342.60 783.12 342.23 783.68
  L 302.20 844.04
  A 0.32 0.32 0.0 0 0 302.47 844.54
  L 544.46 844.54
  Q 544.91 844.54 545.15 844.17
  L 625.57 723.01
  Z
  M 596.12 235.96
  A 0.34 0.34 0.0 0 0 595.84 236.11
  L 515.48 357.01
  A 0.34 0.34 0.0 0 0 515.76 357.54
  L 757.97 357.54
  A 0.34 0.34 0.0 0 0 758.25 357.39
  L 838.59 236.49
  A 0.34 0.34 0.0 0 0 838.31 235.96
  L 596.12 235.96
  Z
  M 583.32 882.20
  C 578.68 884.67 583.93 890.16 586.95 886.62
  Q 588.69 884.59 587.58 882.36
  C 585.97 879.10 580.84 878.49 577.75 879.22
  C 572.73 880.42 571.26 885.37 571.72 889.99
  A 0.50 0.49 86.9 0 1 571.23 890.54
  L 567.71 890.53
  Q 567.20 890.53 567.18 891.04
  L 567.12 892.48
  Q 567.09 893.11 567.73 893.11
  L 571.01 893.12
  Q 571.60 893.12 571.60 893.71
  L 571.58 911.83
  Q 571.58 912.49 570.92 912.48
  L 567.79 912.44
  A 0.59 0.59 0.0 0 0 567.20 912.96
  L 567.06 914.50
  Q 567.01 915.00 567.50 915.00
  L 581.62 915.00
  Q 582.24 915.00 582.24 914.38
  L 582.23 913.11
  Q 582.23 912.48 581.60 912.48
  L 576.99 912.48
  Q 576.50 912.48 576.50 911.99
  L 576.50 893.68
  Q 576.50 893.11 577.07 893.11
  L 583.11 893.12
  A 0.58 0.58 0.0 0 0 583.69 892.56
  L 583.76 891.03
  Q 583.78 890.53 583.28 890.53
  L 577.02 890.54
  Q 576.53 890.54 576.46 890.06
  C 576.03 887.27 576.00 882.74 578.93 881.27
  Q 581.05 880.21 583.32 881.43
  Q 584.04 881.82 583.32 882.20
  Z
  M 405.92 911.05
  Q 406.43 912.52 406.48 914.18
  A 2.03 1.61 -83.0 0 0 409.72 913.80
  Q 409.55 907.94 409.67 902.25
  Q 409.68 901.68 410.25 901.68
  L 412.80 901.70
  A 0.50 0.50 0.0 0 0 413.31 901.20
  L 413.30 898.76
  Q 413.30 898.22 412.76 898.22
  L 399.02 898.22
  Q 398.50 898.22 398.50 898.73
  L 398.50 901.22
  Q 398.50 901.69 398.97 901.69
  L 404.45 901.70
  Q 404.87 901.70 404.92 902.11
  C 405.99 911.25 395.43 914.07 389.47 908.75
  C 381.52 901.65 383.96 882.75 397.30 883.19
  Q 401.24 883.32 404.42 886.11
  Q 404.88 886.52 404.35 886.82
  C 399.20 889.67 403.24 896.13 407.97 893.35
  Q 410.56 891.83 409.46 888.19
  C 407.92 883.08 403.16 880.49 397.87 880.18
  C 372.91 878.71 373.06 916.56 395.99 915.50
  Q 402.04 915.22 405.43 910.96
  Q 405.75 910.55 405.92 911.05
  Z
  M 313.34 884.41
  L 313.34 911.20
  Q 313.34 911.74 312.79 911.74
  L 308.25 911.75
  Q 307.74 911.75 307.74 912.25
  L 307.75 914.49
  Q 307.75 914.99 308.25 914.99
  Q 316.88 915.05 325.50 914.91
  C 330.85 914.82 337.28 913.29 338.19 907.32
  C 338.99 902.16 336.08 898.12 331.02 896.86
  A 0.30 0.30 0.0 0 1 331.00 896.28
  C 335.76 894.75 337.94 890.06 335.57 885.66
  C 333.10 881.07 326.53 880.80 321.50 880.76
  Q 314.89 880.69 308.25 880.75
  Q 307.75 880.76 307.75 881.26
  L 307.75 883.49
  Q 307.75 883.99 308.24 883.99
  L 312.93 883.99
  Q 313.34 883.99 313.34 884.41
  Z
  M 486.30 892.89
  Q 481.43 888.48 476.37 890.55
  C 470.00 893.15 469.20 899.73 469.90 905.98
  C 470.82 914.32 480.52 919.78 486.14 911.82
  Q 486.75 910.95 486.94 911.99
  L 487.37 914.45
  A 0.66 0.66 0.0 0 0 488.02 915.00
  L 495.04 915.00
  Q 495.83 915.00 495.75 914.21
  L 495.63 913.01
  Q 495.57 912.46 495.01 912.46
  L 492.00 912.48
  Q 491.51 912.49 491.51 912.00
  L 491.51 881.25
  Q 491.51 880.73 491.00 880.73
  L 481.76 880.73
  Q 481.26 880.73 481.26 881.24
  L 481.26 883.01
  Q 481.26 883.51 481.76 883.51
  L 486.20 883.51
  Q 486.64 883.51 486.64 883.95
  L 486.67 892.72
  Q 486.67 893.21 486.30 892.89
  Z
  M 513.09 884.42
  L 513.09 911.20
  A 0.55 0.54 90.0 0 1 512.55 911.75
  L 508.00 911.75
  Q 507.50 911.75 507.50 912.25
  L 507.50 914.49
  Q 507.50 914.99 508.00 914.99
  Q 516.88 915.06 525.75 914.87
  C 531.00 914.75 537.10 913.06 537.97 907.32
  C 538.74 902.18 535.85 898.14 530.80 896.87
  A 0.30 0.30 0.0 0 1 530.77 896.29
  Q 536.46 894.26 536.17 888.67
  C 535.85 882.64 529.19 880.90 524.25 880.81
  Q 516.13 880.66 508.00 880.76
  Q 507.50 880.76 507.50 881.26
  L 507.50 883.49
  Q 507.50 883.99 507.99 883.99
  L 512.67 883.99
  Q 513.09 883.99 513.09 884.42
  Z
  M 676.09 884.54
  L 676.09 911.20
  A 0.55 0.55 0.0 0 1 675.54 911.75
  L 671.00 911.75
  Q 670.50 911.75 670.50 912.25
  L 670.49 914.48
  Q 670.49 914.98 670.99 914.99
  Q 679.87 915.06 688.75 914.87
  Q 693.23 914.77 696.18 913.42
  C 704.10 909.77 701.94 898.87 693.81 896.87
  A 0.31 0.31 0.0 0 1 693.76 896.29
  C 703.82 892.08 698.97 881.71 690.00 880.99
  Q 683.03 880.44 670.93 880.84
  Q 670.50 880.85 670.50 881.29
  L 670.49 883.49
  Q 670.49 883.99 670.99 883.99
  L 675.54 883.99
  Q 676.09 883.99 676.09 884.54
  Z
  M 761.57 890.05
  L 761.59 881.75
  A 0.84 0.84 0.0 0 0 759.94 881.55
  Q 758.24 888.53 752.24 892.24
  A 0.48 0.47 -61.0 0 0 752.49 893.12
  L 756.24 893.10
  Q 756.71 893.10 756.71 893.57
  Q 756.72 899.91 756.73 906.28
  C 756.73 911.70 758.30 915.76 764.28 915.63
  C 770.97 915.49 771.69 909.77 771.27 904.27
  Q 771.23 903.77 770.74 903.76
  L 769.05 903.75
  Q 768.56 903.74 768.57 904.24
  C 768.66 907.61 768.91 913.25 764.44 912.38
  C 761.89 911.89 761.62 909.97 761.60 907.73
  Q 761.56 900.80 761.59 893.72
  Q 761.60 893.17 762.14 893.18
  L 769.94 893.19
  Q 770.57 893.19 770.56 892.56
  L 770.53 891.03
  Q 770.53 890.53 770.03 890.53
  L 762.05 890.53
  Q 761.57 890.53 761.57 890.05
  Z
  M 347.53 902.48
  L 363.77 902.48
  Q 364.35 902.48 364.36 901.90
  C 364.38 893.34 356.15 886.76 348.08 891.07
  C 339.05 895.89 339.46 911.92 350.25 915.21
  C 355.94 916.93 362.30 913.93 363.76 907.74
  Q 363.88 907.23 363.37 907.11
  L 361.80 906.74
  Q 361.32 906.63 361.13 907.09
  C 357.46 916.13 346.32 912.41 347.06 902.92
  Q 347.09 902.48 347.53 902.48
  Z
  M 427.2542 915.7584
  A 13.00 12.01 89.1 0 0 439.0585 902.5714
  A 13.00 12.01 89.1 0 0 426.8458 889.7616
  A 13.00 12.01 89.1 0 0 415.0415 902.9486
  A 13.00 12.01 89.1 0 0 427.2542 915.7584
  Z
  M 454.4815 915.7587
  A 13.00 12.01 89.2 0 0 466.3088 902.5923
  A 13.00 12.01 89.2 0 0 454.1185 889.7613
  A 13.00 12.01 89.2 0 0 442.2912 902.9277
  A 13.00 12.01 89.2 0 0 454.4815 915.7587
  Z
  M 547.29 902.48
  L 563.72 902.48
  Q 564.12 902.48 564.13 902.07
  C 564.18 896.48 561.26 891.74 555.79 890.17
  Q 551.57 888.96 547.81 891.05
  C 537.23 896.94 540.12 916.86 554.62 915.53
  Q 560.98 914.95 563.62 908.02
  A 0.61 0.61 0.0 0 0 563.24 907.22
  L 561.77 906.73
  Q 561.13 906.52 560.87 907.14
  C 557.11 916.12 546.06 912.37 546.81 902.92
  Q 546.85 902.48 547.29 902.48
  Z
  M 597.5042 915.7584
  A 13.00 12.01 89.1 0 0 609.3085 902.5714
  A 13.00 12.01 89.1 0 0 597.0958 889.7616
  A 13.00 12.01 89.1 0 0 585.2915 902.9486
  A 13.00 12.01 89.1 0 0 597.5042 915.7584
  Z
  M 621.23 894.49
  L 620.85 890.73
  Q 620.80 890.17 620.23 890.19
  L 612.65 890.53
  Q 612.11 890.56 612.09 891.10
  L 612.04 892.44
  A 0.66 0.66 0.0 0 0 612.69 893.12
  L 615.96 893.12
  Q 616.54 893.12 616.54 893.71
  L 616.54 911.98
  Q 616.54 912.50 616.02 912.49
  L 612.75 912.44
  Q 612.19 912.43 612.14 913.00
  L 612.01 914.48
  Q 611.97 915.00 612.48 915.00
  L 625.97 915.00
  A 0.66 0.66 0.0 0 0 626.63 914.28
  L 626.53 912.98
  Q 626.49 912.47 625.98 912.47
  L 622.04 912.48
  Q 621.58 912.48 621.55 912.03
  C 621.28 906.90 620.02 895.32 625.66 892.57
  Q 626.49 892.17 626.15 893.03
  C 625.02 895.87 626.92 897.93 629.76 897.40
  C 633.52 896.70 633.29 890.49 628.99 890.08
  Q 623.87 889.59 621.73 894.56
  Q 621.33 895.47 621.23 894.49
  Z
  M 640.29 902.48
  L 656.70 902.48
  Q 656.99 902.48 657.00 902.18
  Q 657.25 894.22 651.21 891.05
  Q 646.53 888.61 642.02 890.55
  C 630.76 895.40 632.13 914.44 645.45 915.55
  Q 652.71 916.16 656.46 908.76
  A 1.22 1.22 0.0 0 0 655.76 907.06
  L 654.76 906.72
  A 0.73 0.73 0.0 0 0 653.86 907.13
  C 650.16 916.13 639.06 912.38 639.81 902.92
  Q 639.85 902.48 640.29 902.48
  Z
  M 710.29 902.48
  L 726.70 902.48
  Q 727.00 902.48 727.01 902.18
  C 727.24 894.24 720.56 887.72 712.81 890.30
  C 700.82 894.29 701.69 914.11 715.34 915.53
  Q 723.19 916.36 726.71 907.97
  A 0.53 0.52 20.7 0 0 726.39 907.27
  L 724.79 906.73
  Q 724.13 906.51 723.86 907.15
  C 720.10 916.13 709.06 912.36 709.81 902.92
  Q 709.85 902.48 710.29 902.48
  Z
  M 745.37 893.79
  C 741.88 896.85 747.11 900.95 749.64 897.69
  C 752.16 894.47 748.06 891.43 745.14 890.67
  Q 739.74 889.26 735.40 891.00
  C 731.56 892.54 729.36 896.90 732.28 900.37
  C 735.22 903.86 747.87 904.59 746.40 909.77
  C 745.21 913.98 738.56 913.33 735.57 911.95
  Q 735.04 911.70 735.51 911.35
  C 739.77 908.14 734.06 904.15 731.71 907.00
  Q 729.87 909.25 731.23 911.64
  C 733.86 916.25 742.70 916.22 746.77 914.55
  C 752.43 912.24 752.22 904.41 746.66 902.07
  Q 744.45 901.13 737.88 898.96
  C 736.56 898.52 735.28 897.63 735.26 896.25
  C 735.18 891.59 742.60 892.06 745.26 893.13
  Q 745.86 893.37 745.37 893.79
  Z"
/>
<path fill="#004aad" d="
  M 514.78 722.96
  L 625.57 723.01
  L 545.15 844.17
  Q 544.91 844.54 544.46 844.54
  L 302.47 844.54
  A 0.32 0.32 0.0 0 1 302.20 844.04
  L 342.23 783.68
  Q 342.60 783.12 341.93 783.12
  L 302.43 783.15
  A 0.47 0.47 0.0 0 1 301.96 782.68
  L 301.95 548.13
  A 1.13 1.11 -73.3 0 0 301.46 547.20
  L 241.08 507.30
  Q 240.75 507.08 240.75 506.68
  L 240.75 236.53
  Q 240.75 236.02 241.18 236.30
  L 361.91 316.38
  Q 362.25 316.61 362.25 317.02
  L 362.25 459.25
  Q 362.25 459.75 362.75 459.75
  L 412.02 459.75
  Q 412.54 459.75 412.54 460.27
  L 412.54 722.28
  Q 412.54 722.92 413.17 722.92
  L 514.78 722.96
  Z"
/>
<path fill="#004485" d="
  M 596.12 235.96
  L 838.31 235.96
  A 0.34 0.34 0.0 0 1 838.59 236.49
  L 758.25 357.39
  A 0.34 0.34 0.0 0 1 757.97 357.54
  L 515.76 357.54
  A 0.34 0.34 0.0 0 1 515.48 357.01
  L 595.84 236.11
  A 0.34 0.34 0.0 0 1 596.12 235.96
  Z"
/>
<path fill="#004485" d="
  M 625.57 723.01
  L 514.78 722.96
  L 514.99 400.43
  A 0.50 0.49 -0.0 0 1 515.49 399.94
  L 838.49 399.96
  A 0.20 0.20 0.0 0 1 838.65 400.27
  L 758.35 521.10
  Q 758.05 521.54 757.51 521.54
  L 626.27 521.54
  Q 626.01 521.54 626.01 521.81
  Q 625.98 619.22 626.02 716.50
  Q 626.02 721.53 625.57 723.01
  Z"
/>
<path fill="#004485" d="
  M 583.32 881.43
  Q 581.05 880.21 578.93 881.27
  C 576.00 882.74 576.03 887.27 576.46 890.06
  Q 576.53 890.54 577.02 890.54
  L 583.28 890.53
  Q 583.78 890.53 583.76 891.03
  L 583.69 892.56
  A 0.58 0.58 0.0 0 1 583.11 893.12
  L 577.07 893.11
  Q 576.50 893.11 576.50 893.68
  L 576.50 911.99
  Q 576.50 912.48 576.99 912.48
  L 581.60 912.48
  Q 582.23 912.48 582.23 913.11
  L 582.24 914.38
  Q 582.24 915.00 581.62 915.00
  L 567.50 915.00
  Q 567.01 915.00 567.06 914.50
  L 567.20 912.96
  A 0.59 0.59 0.0 0 1 567.79 912.44
  L 570.92 912.48
  Q 571.58 912.49 571.58 911.83
  L 571.60 893.71
  Q 571.60 893.12 571.01 893.12
  L 567.73 893.11
  Q 567.09 893.11 567.12 892.48
  L 567.18 891.04
  Q 567.20 890.53 567.71 890.53
  L 571.23 890.54
  A 0.50 0.49 86.9 0 0 571.72 889.99
  C 571.26 885.37 572.73 880.42 577.75 879.22
  C 580.84 878.49 585.97 879.10 587.58 882.36
  Q 588.69 884.59 586.95 886.62
  C 583.93 890.16 578.68 884.67 583.32 882.20
  Q 584.04 881.82 583.32 881.43
  Z"
/>
<path fill="#004485" d="
  M 405.43 910.96
  Q 402.04 915.22 395.99 915.50
  C 373.06 916.56 372.91 878.71 397.87 880.18
  C 403.16 880.49 407.92 883.08 409.46 888.19
  Q 410.56 891.83 407.97 893.35
  C 403.24 896.13 399.20 889.67 404.35 886.82
  Q 404.88 886.52 404.42 886.11
  Q 401.24 883.32 397.30 883.19
  C 383.96 882.75 381.52 901.65 389.47 908.75
  C 395.43 914.07 405.99 911.25 404.92 902.11
  Q 404.87 901.70 404.45 901.70
  L 398.97 901.69
  Q 398.50 901.69 398.50 901.22
  L 398.50 898.73
  Q 398.50 898.22 399.02 898.22
  L 412.76 898.22
  Q 413.30 898.22 413.30 898.76
  L 413.31 901.20
  A 0.50 0.50 0.0 0 1 412.80 901.70
  L 410.25 901.68
  Q 409.68 901.68 409.67 902.25
  Q 409.55 907.94 409.72 913.80
  A 2.03 1.61 -83.0 0 1 406.48 914.18
  Q 406.43 912.52 405.92 911.05
  Q 405.75 910.55 405.43 910.96
  Z"
/>
<path fill="#004485" d="
  M 312.93 883.99
  L 308.24 883.99
  Q 307.75 883.99 307.75 883.49
  L 307.75 881.26
  Q 307.75 880.76 308.25 880.75
  Q 314.89 880.69 321.50 880.76
  C 326.53 880.80 333.10 881.07 335.57 885.66
  C 337.94 890.06 335.76 894.75 331.00 896.28
  A 0.30 0.30 0.0 0 0 331.02 896.86
  C 336.08 898.12 338.99 902.16 338.19 907.32
  C 337.28 913.29 330.85 914.82 325.50 914.91
  Q 316.88 915.05 308.25 914.99
  Q 307.75 914.99 307.75 914.49
  L 307.74 912.25
  Q 307.74 911.75 308.25 911.75
  L 312.79 911.74
  Q 313.34 911.74 313.34 911.20
  L 313.34 884.41
  Q 313.34 883.99 312.93 883.99
  Z
  M 318.72 884.30
  L 318.72 895.04
  A 0.26 0.26 0.0 0 0 318.98 895.30
  L 324.55 895.30
  A 6.93 5.00 0.0 0 0 331.48 890.30
  L 331.48 889.04
  A 6.93 5.00 -0.0 0 0 324.55 884.04
  L 318.98 884.04
  A 0.26 0.26 0.0 0 0 318.72 884.30
  Z
  M 318.75 898.81
  L 318.71 911.49
  A 0.29 0.29 0.0 0 0 319.00 911.78
  L 324.94 911.80
  A 7.99 6.15 0.2 0 0 332.95 905.67
  L 332.95 904.71
  A 7.99 6.15 0.2 0 0 324.98 898.54
  L 319.04 898.52
  A 0.29 0.29 0.0 0 0 318.75 898.81
  Z"
/>
<path fill="#004485" d="
  M 486.67 892.72
  L 486.64 883.95
  Q 486.64 883.51 486.20 883.51
  L 481.76 883.51
  Q 481.26 883.51 481.26 883.01
  L 481.26 881.24
  Q 481.26 880.73 481.76 880.73
  L 491.00 880.73
  Q 491.51 880.73 491.51 881.25
  L 491.51 912.00
  Q 491.51 912.49 492.00 912.48
  L 495.01 912.46
  Q 495.57 912.46 495.63 913.01
  L 495.75 914.21
  Q 495.83 915.00 495.04 915.00
  L 488.02 915.00
  A 0.66 0.66 0.0 0 1 487.37 914.45
  L 486.94 911.99
  Q 486.75 910.95 486.14 911.82
  C 480.52 919.78 470.82 914.32 469.90 905.98
  C 469.20 899.73 470.00 893.15 476.37 890.55
  Q 481.43 888.48 486.30 892.89
  Q 486.67 893.21 486.67 892.72
  Z
  M 480.6954 912.7792
  A 10.20 6.14 90.7 0 0 486.9595 902.6550
  A 10.20 6.14 90.7 0 0 480.9446 892.3808
  A 10.20 6.14 90.7 0 0 474.6805 902.5050
  A 10.20 6.14 90.7 0 0 480.6954 912.7792
  Z"
/>
<path fill="#004485" d="
  M 512.67 883.99
  L 507.99 883.99
  Q 507.50 883.99 507.50 883.49
  L 507.50 881.26
  Q 507.50 880.76 508.00 880.76
  Q 516.13 880.66 524.25 880.81
  C 529.19 880.90 535.85 882.64 536.17 888.67
  Q 536.46 894.26 530.77 896.29
  A 0.30 0.30 0.0 0 0 530.80 896.87
  C 535.85 898.14 538.74 902.18 537.97 907.32
  C 537.10 913.06 531.00 914.75 525.75 914.87
  Q 516.88 915.06 508.00 914.99
  Q 507.50 914.99 507.50 914.49
  L 507.50 912.25
  Q 507.50 911.75 508.00 911.75
  L 512.55 911.75
  A 0.55 0.54 90.0 0 0 513.09 911.20
  L 513.09 884.42
  Q 513.09 883.99 512.67 883.99
  Z
  M 518.47 884.25
  L 518.49 895.11
  A 0.21 0.21 0.0 0 0 518.70 895.32
  L 524.35 895.31
  A 6.90 5.11 -0.1 0 0 531.24 890.19
  L 531.24 889.13
  A 6.90 5.11 -0.1 0 0 524.33 884.03
  L 518.68 884.04
  A 0.21 0.21 0.0 0 0 518.47 884.25
  Z
  M 518.49 898.73
  L 518.45 911.57
  A 0.21 0.21 0.0 0 0 518.66 911.78
  L 524.61 911.80
  A 8.06 6.04 0.2 0 0 532.69 905.78
  L 532.69 904.60
  A 8.06 6.04 0.2 0 0 524.65 898.54
  L 518.70 898.52
  A 0.21 0.21 0.0 0 0 518.49 898.73
  Z"
/>
<path fill="#004485" d="
  M 675.54 883.99
  L 670.99 883.99
  Q 670.49 883.99 670.49 883.49
  L 670.50 881.29
  Q 670.50 880.85 670.93 880.84
  Q 683.03 880.44 690.00 880.99
  C 698.97 881.71 703.82 892.08 693.76 896.29
  A 0.31 0.31 0.0 0 0 693.81 896.87
  C 701.94 898.87 704.10 909.77 696.18 913.42
  Q 693.23 914.77 688.75 914.87
  Q 679.87 915.06 670.99 914.99
  Q 670.49 914.98 670.49 914.48
  L 670.50 912.25
  Q 670.50 911.75 671.00 911.75
  L 675.54 911.75
  A 0.55 0.55 0.0 0 0 676.09 911.20
  L 676.09 884.54
  Q 676.09 883.99 675.54 883.99
  Z
  M 681.47 884.30
  L 681.49 895.06
  A 0.26 0.26 0.0 0 0 681.75 895.32
  L 687.35 895.31
  A 6.90 5.10 -0.1 0 0 694.24 890.20
  L 694.24 889.12
  A 6.90 5.10 -0.1 0 0 687.33 884.03
  L 681.73 884.04
  A 0.26 0.26 0.0 0 0 681.47 884.30
  Z
  M 681.48 898.74
  L 681.46 911.58
  A 0.21 0.21 0.0 0 0 681.67 911.79
  L 687.63 911.80
  A 8.05 6.04 0.1 0 0 695.69 905.77
  L 695.69 904.59
  A 8.05 6.04 0.1 0 0 687.65 898.54
  L 681.69 898.53
  A 0.21 0.21 0.0 0 0 681.48 898.74
  Z"
/>
<path fill="#004485" d="
  M 762.05 890.53
  L 770.03 890.53
  Q 770.53 890.53 770.53 891.03
  L 770.56 892.56
  Q 770.57 893.19 769.94 893.19
  L 762.14 893.18
  Q 761.60 893.17 761.59 893.72
  Q 761.56 900.80 761.60 907.73
  C 761.62 909.97 761.89 911.89 764.44 912.38
  C 768.91 913.25 768.66 907.61 768.57 904.24
  Q 768.56 903.74 769.05 903.75
  L 770.74 903.76
  Q 771.23 903.77 771.27 904.27
  C 771.69 909.77 770.97 915.49 764.28 915.63
  C 758.30 915.76 756.73 911.70 756.73 906.28
  Q 756.72 899.91 756.71 893.57
  Q 756.71 893.10 756.24 893.10
  L 752.49 893.12
  A 0.48 0.47 -61.0 0 1 752.24 892.24
  Q 758.24 888.53 759.94 881.55
  A 0.84 0.84 0.0 0 1 761.59 881.75
  L 761.57 890.05
  Q 761.57 890.53 762.05 890.53
  Z"
/>
<path fill="#ffffff" d="
  M 318.72 884.30
  A 0.26 0.26 0.0 0 1 318.98 884.04
  L 324.55 884.04
  A 6.93 5.00 0.0 0 1 331.48 889.04
  L 331.48 890.30
  A 6.93 5.00 0.0 0 1 324.55 895.30
  L 318.98 895.30
  A 0.26 0.26 0.0 0 1 318.72 895.04
  L 318.72 884.30
  Z"
/>
<path fill="#ffffff" d="
  M 518.47 884.25
  A 0.21 0.21 0.0 0 1 518.68 884.04
  L 524.33 884.03
  A 6.90 5.11 -0.1 0 1 531.24 889.13
  L 531.24 890.19
  A 6.90 5.11 -0.1 0 1 524.35 895.31
  L 518.70 895.32
  A 0.21 0.21 0.0 0 1 518.49 895.11
  L 518.47 884.25
  Z"
/>
<path fill="#ffffff" d="
  M 681.47 884.30
  A 0.26 0.26 0.0 0 1 681.73 884.04
  L 687.33 884.03
  A 6.90 5.10 -0.1 0 1 694.24 889.12
  L 694.24 890.20
  A 6.90 5.10 -0.1 0 1 687.35 895.31
  L 681.75 895.32
  A 0.26 0.26 0.0 0 1 681.49 895.06
  L 681.47 884.30
  Z"
/>
<path fill="#004485" d="
  M 347.06 902.92
  C 346.32 912.41 357.46 916.13 361.13 907.09
  Q 361.32 906.63 361.80 906.74
  L 363.37 907.11
  Q 363.88 907.23 363.76 907.74
  C 362.30 913.93 355.94 916.93 350.25 915.21
  C 339.46 911.92 339.05 895.89 348.08 891.07
  C 356.15 886.76 364.38 893.34 364.36 901.90
  Q 364.35 902.48 363.77 902.48
  L 347.53 902.48
  Q 347.09 902.48 347.06 902.92
  Z
  M 347.55 900.06
  L 359.11 899.94
  A 0.37 0.37 0.0 0 0 359.47 899.57
  L 359.47 899.41
  A 6.77 6.03 89.4 0 0 353.37 892.70
  L 353.13 892.70
  A 6.77 6.03 89.4 0 0 347.17 899.53
  L 347.17 899.69
  A 0.37 0.37 0.0 0 0 347.55 900.06
  Z"
/>
<path fill="#004485" d="
  M 427.2542 915.7584
  A 13.00 12.01 89.1 0 1 415.0415 902.9486
  A 13.00 12.01 89.1 0 1 426.8458 889.7616
  A 13.00 12.01 89.1 0 1 439.0585 902.5714
  A 13.00 12.01 89.1 0 1 427.2542 915.7584
  Z
  M 427.0600 912.9000
  A 10.23 6.76 90.0 0 0 433.8200 902.6700
  A 10.23 6.76 90.0 0 0 427.0600 892.4400
  A 10.23 6.76 90.0 0 0 420.3000 902.6700
  A 10.23 6.76 90.0 0 0 427.0600 912.9000
  Z"
/>
<path fill="#004485" d="
  M 454.4815 915.7587
  A 13.00 12.01 89.2 0 1 442.2912 902.9277
  A 13.00 12.01 89.2 0 1 454.1185 889.7613
  A 13.00 12.01 89.2 0 1 466.3088 902.5923
  A 13.00 12.01 89.2 0 1 454.4815 915.7587
  Z
  M 454.2922 912.8900
  A 10.22 6.75 90.1 0 0 461.0600 902.6818
  A 10.22 6.75 90.1 0 0 454.3278 892.4500
  A 10.22 6.75 90.1 0 0 447.5600 902.6582
  A 10.22 6.75 90.1 0 0 454.2922 912.8900
  Z"
/>
<path fill="#004485" d="
  M 546.81 902.92
  C 546.06 912.37 557.11 916.12 560.87 907.14
  Q 561.13 906.52 561.77 906.73
  L 563.24 907.22
  A 0.61 0.61 0.0 0 1 563.62 908.02
  Q 560.98 914.95 554.62 915.53
  C 540.12 916.86 537.23 896.94 547.81 891.05
  Q 551.57 888.96 555.79 890.17
  C 561.26 891.74 564.18 896.48 564.13 902.07
  Q 564.12 902.48 563.72 902.48
  L 547.29 902.48
  Q 546.85 902.48 546.81 902.92
  Z
  M 547.23 900.05
  L 558.91 899.95
  A 0.30 0.30 0.0 0 0 559.21 899.65
  L 559.21 899.48
  A 6.81 6.02 89.5 0 0 553.13 892.72
  L 552.89 892.72
  A 6.81 6.02 89.5 0 0 546.93 899.58
  L 546.93 899.75
  A 0.30 0.30 0.0 0 0 547.23 900.05
  Z"
/>
<path fill="#004485" d="
  M 597.5042 915.7584
  A 13.00 12.01 89.1 0 1 585.2915 902.9486
  A 13.00 12.01 89.1 0 1 597.0958 889.7616
  A 13.00 12.01 89.1 0 1 609.3085 902.5714
  A 13.00 12.01 89.1 0 1 597.5042 915.7584
  Z
  M 597.2921 912.9000
  A 10.23 6.75 90.1 0 0 604.0600 902.6818
  A 10.23 6.75 90.1 0 0 597.3279 892.4400
  A 10.23 6.75 90.1 0 0 590.5600 902.6582
  A 10.23 6.75 90.1 0 0 597.2921 912.9000
  Z"
/>
<path fill="#004485" d="
  M 621.73 894.56
  Q 623.87 889.59 628.99 890.08
  C 633.29 890.49 633.52 896.70 629.76 897.40
  C 626.92 897.93 625.02 895.87 626.15 893.03
  Q 626.49 892.17 625.66 892.57
  C 620.02 895.32 621.28 906.90 621.55 912.03
  Q 621.58 912.48 622.04 912.48
  L 625.98 912.47
  Q 626.49 912.47 626.53 912.98
  L 626.63 914.28
  A 0.66 0.66 0.0 0 1 625.97 915.00
  L 612.48 915.00
  Q 611.97 915.00 612.01 914.48
  L 612.14 913.00
  Q 612.19 912.43 612.75 912.44
  L 616.02 912.49
  Q 616.54 912.50 616.54 911.98
  L 616.54 893.71
  Q 616.54 893.12 615.96 893.12
  L 612.69 893.12
  A 0.66 0.66 0.0 0 1 612.04 892.44
  L 612.09 891.10
  Q 612.11 890.56 612.65 890.53
  L 620.23 890.19
  Q 620.80 890.17 620.85 890.73
  L 621.23 894.49
  Q 621.33 895.47 621.73 894.56
  Z"
/>
<path fill="#004485" d="
  M 639.81 902.92
  C 639.06 912.38 650.16 916.13 653.86 907.13
  A 0.73 0.73 0.0 0 1 654.76 906.72
  L 655.76 907.06
  A 1.22 1.22 0.0 0 1 656.46 908.76
  Q 652.71 916.16 645.45 915.55
  C 632.13 914.44 630.76 895.40 642.02 890.55
  Q 646.53 888.61 651.21 891.05
  Q 657.25 894.22 657.00 902.18
  Q 656.99 902.48 656.70 902.48
  L 640.29 902.48
  Q 639.85 902.48 639.81 902.92
  Z
  M 640.22 900.05
  L 651.92 899.95
  A 0.30 0.30 0.0 0 0 652.22 899.65
  L 652.22 899.48
  A 6.81 6.02 89.5 0 0 646.14 892.72
  L 645.88 892.72
  A 6.81 6.02 89.5 0 0 639.92 899.58
  L 639.92 899.75
  A 0.30 0.30 0.0 0 0 640.22 900.05
  Z"
/>
<path fill="#004485" d="
  M 709.81 902.92
  C 709.06 912.36 720.10 916.13 723.86 907.15
  Q 724.13 906.51 724.79 906.73
  L 726.39 907.27
  A 0.53 0.52 20.7 0 1 726.71 907.97
  Q 723.19 916.36 715.34 915.53
  C 701.69 914.11 700.82 894.29 712.81 890.30
  C 720.56 887.72 727.24 894.24 727.01 902.18
  Q 727.00 902.48 726.70 902.48
  L 710.29 902.48
  Q 709.85 902.48 709.81 902.92
  Z
  M 710.22 900.05
  L 721.92 899.95
  A 0.30 0.30 0.0 0 0 722.22 899.65
  L 722.22 899.48
  A 6.81 6.02 89.5 0 0 716.14 892.72
  L 715.88 892.72
  A 6.81 6.02 89.5 0 0 709.92 899.58
  L 709.92 899.75
  A 0.30 0.30 0.0 0 0 710.22 900.05
  Z"
/>
<path fill="#004485" d="
  M 745.26 893.13
  C 742.60 892.06 735.18 891.59 735.26 896.25
  C 735.28 897.63 736.56 898.52 737.88 898.96
  Q 744.45 901.13 746.66 902.07
  C 752.22 904.41 752.43 912.24 746.77 914.55
  C 742.70 916.22 733.86 916.25 731.23 911.64
  Q 729.87 909.25 731.71 907.00
  C 734.06 904.15 739.77 908.14 735.51 911.35
  Q 735.04 911.70 735.57 911.95
  C 738.56 913.33 745.21 913.98 746.40 909.77
  C 747.87 904.59 735.22 903.86 732.28 900.37
  C 729.36 896.90 731.56 892.54 735.40 891.00
  Q 739.74 889.26 745.14 890.67
  C 748.06 891.43 752.16 894.47 749.64 897.69
  C 747.11 900.95 741.88 896.85 745.37 893.79
  Q 745.86 893.37 745.26 893.13
  Z"
/>
<ellipse fill="#ffffff" cx="0.00" cy="0.00" transform="translate(480.82,902.58) rotate(90.7)" rx="10.20" ry="6.14"/>
<path fill="#ffffff" d="
  M 347.55 900.06
  A 0.37 0.37 0.0 0 1 347.17 899.69
  L 347.17 899.53
  A 6.77 6.03 89.4 0 1 353.13 892.70
  L 353.37 892.70
  A 6.77 6.03 89.4 0 1 359.47 899.41
  L 359.47 899.57
  A 0.37 0.37 0.0 0 1 359.11 899.94
  L 347.55 900.06
  Z"
/>
<ellipse fill="#ffffff" cx="0.00" cy="0.00" transform="translate(427.06,902.67) rotate(90.0)" rx="10.23" ry="6.76"/>
<ellipse fill="#ffffff" cx="0.00" cy="0.00" transform="translate(454.31,902.67) rotate(90.1)" rx="10.22" ry="6.75"/>
<path fill="#ffffff" d="
  M 547.23 900.05
  A 0.30 0.30 0.0 0 1 546.93 899.75
  L 546.93 899.58
  A 6.81 6.02 89.5 0 1 552.89 892.72
  L 553.13 892.72
  A 6.81 6.02 89.5 0 1 559.21 899.48
  L 559.21 899.65
  A 0.30 0.30 0.0 0 1 558.91 899.95
  L 547.23 900.05
  Z"
/>
<ellipse fill="#ffffff" cx="0.00" cy="0.00" transform="translate(597.31,902.67) rotate(90.1)" rx="10.23" ry="6.75"/>
<path fill="#ffffff" d="
  M 640.22 900.05
  A 0.30 0.30 0.0 0 1 639.92 899.75
  L 639.92 899.58
  A 6.81 6.02 89.5 0 1 645.88 892.72
  L 646.14 892.72
  A 6.81 6.02 89.5 0 1 652.22 899.48
  L 652.22 899.65
  A 0.30 0.30 0.0 0 1 651.92 899.95
  L 640.22 900.05
  Z"
/>
<path fill="#ffffff" d="
  M 710.22 900.05
  A 0.30 0.30 0.0 0 1 709.92 899.75
  L 709.92 899.58
  A 6.81 6.02 89.5 0 1 715.88 892.72
  L 716.14 892.72
  A 6.81 6.02 89.5 0 1 722.22 899.48
  L 722.22 899.65
  A 0.30 0.30 0.0 0 1 721.92 899.95
  L 710.22 900.05
  Z"
/>
<path fill="#ffffff" d="
  M 318.75 898.81
  A 0.29 0.29 0.0 0 1 319.04 898.52
  L 324.98 898.54
  A 7.99 6.15 0.2 0 1 332.95 904.71
  L 332.95 905.67
  A 7.99 6.15 0.2 0 1 324.94 911.80
  L 319.00 911.78
  A 0.29 0.29 0.0 0 1 318.71 911.49
  L 318.75 898.81
  Z"
/>
<path fill="#ffffff" d="
  M 518.49 898.73
  A 0.21 0.21 0.0 0 1 518.70 898.52
  L 524.65 898.54
  A 8.06 6.04 0.2 0 1 532.69 904.60
  L 532.69 905.78
  A 8.06 6.04 0.2 0 1 524.61 911.80
  L 518.66 911.78
  A 0.21 0.21 0.0 0 1 518.45 911.57
  L 518.49 898.73
  Z"
/>
<path fill="#ffffff" d="
  M 681.48 898.74
  A 0.21 0.21 0.0 0 1 681.69 898.53
  L 687.65 898.54
  A 8.05 6.04 0.1 0 1 695.69 904.59
  L 695.69 905.77
  A 8.05 6.04 0.1 0 1 687.63 911.80
  L 681.67 911.79
  A 0.21 0.21 0.0 0 1 681.46 911.58
  L 681.48 898.74
  Z"
/>
</svg>
